# xmcd CD database file
#
# Track frame offsets:
#	150
#	21334
#	62109
#	74435
#	116661
#	137198
#	168174
#	197963
#	211619
#
# Disc length: 3342 seconds
#
# Revision: 0
# Processed by: cddbd v1.5.2PL0 Copyright (c) Steve Scherf et al.
# Submitted via: CDex 1.51
#
DISCID=850d0c09
DTITLE=Benoit Martiny Band - Benoit Martiny Band
DYEAR=2008
DGENRE=Jazz
TTITLE0=Present Dance
TTITLE1=The Devil On My Trail
TTITLE2=Seriously Damaged
TTITLE3=Silent Phones
TTITLE4=Katrina's Voodoo
TTITLE5=Out Of The Bubble
TTITLE6=The Most Relaxed Cows In The World Live In India
TTITLE7=No Choice
TTITLE8=Invasion
EXTD=YEAR: 2008
EXTT0=
EXTT1=
EXTT2=
EXTT3=
EXTT4=
EXTT5=
EXTT6=
EXTT7=
EXTT8=
PLAYORDER=
